# xmcd
#
# Track frame offsets:
#	150
#	17196
#	31871
#	52592
#	70358
#	91063
#	108236
#	122597
#	137431
#	151363
#	168461
#	185162
#
# Disc length: 2688 seconds
#
# Revision: 1
# Processed by: cddbd v1.5.2PL0 Copyright (c) Steve Scherf et al.
# Submitted via: audiograbber 1.83.01
#
DISCID=920a7e0c
DTITLE=Freistill - Hoerst Du Meine Lieder
DYEAR=2003
DGENRE=Pop
TTITLE0=Aehnlich 
TTITLE1=Einfaches Maedchen
TTITLE2=Farbenblind
TTITLE3=Fuer Immer
TTITLE4=Hoerst Du Meine Lieder 
TTITLE5=Leichter Gesagt Als Getan
TTITLE6=Nadja Aus Der Schweiz
TTITLE7=Panama
TTITLE8=Peinlich
TTITLE9=Unsichtbar
TTITLE10=Waschbrettbauch
TTITLE11=Wenn Du Gehst
EXTD=
EXTT0=
EXTT1=
EXTT2=
EXTT3=
EXTT4=
EXTT5=
EXTT6=
EXTT7=
EXTT8=
EXTT9=
EXTT10=
EXTT11=
PLAYORDER=
